<?xml version="1.0" encoding="iso-8859-1"?>
<!-- Generator: Adobe Illustrator 18.1.1, SVG Export Plug-In . SVG Version: 6.00 Build 0)  -->
<svg fill="#fff" version="1.1" id="Capa_1" xmlns="http://www.w3.org/2000/svg" xmlns:xlink="http://www.w3.org/1999/xlink" x="0px" y="0px"
	 viewBox="0 0 290.16 290.16" style="enable-background:new 0 0 290.16 290.16;" xml:space="preserve">
<path color-rendering="auto" image-rendering="auto" shape-rendering="auto" color-interpolation="sRGB" d="M145.067,31.323
	c-29.973,0-54.086,25.738-54.086,57.014c0,22.659,12.662,42.401,31.033,51.565c2.383,8.318-0.072,13.817-6.01,18.684
	c-6.406,5.251-17.588,8.856-30.656,9.434c-14.819,0.655-26.219,5.706-33.811,13.443c-7.085,7.221-10.73,16.597-11.373,26.201
	c-14.597,0.581-25.383,1.182-25.383,1.182c-2.89,0.145-5.054,2.706-4.715,5.58v13.5c-3.645,0.589-5.906,0.994-5.906,0.994
	c-2.372,0.437-4.094,2.506-4.094,4.918v9.193c-0.502,3.069,1.89,5.847,5,5.807h105v5c0,2.761,2.239,5,5,5h60
	c3.762,0.053,5.424-3.077,5-5.85v-4.15h105c3.111,0.041,5.503-2.739,5-5.809v-8.271c0.458-2.486-0.751-5.279-4.094-5.838
	c0,0-2.26-0.407-5.906-0.996v-13.451c0.369-2.891-1.802-5.483-4.713-5.627c0,0-10.785-0.601-25.383-1.182
	c-0.643-9.604-4.29-18.98-11.375-26.201c-7.592-7.738-18.992-12.788-33.811-13.443c-13.068-0.578-24.25-4.183-30.656-9.434
	c-5.937-4.866-8.39-10.366-6.008-18.684c18.372-9.164,31.031-28.906,31.031-51.565C199.153,57.061,175.04,31.323,145.067,31.323
	L145.067,31.323z M145.067,41.323c24.247,0,44.086,20.838,44.086,47.014c0,26.175-19.839,47.012-44.086,47.012
	c-24.246,0-44.086-20.836-44.086-47.012C100.981,62.161,120.82,41.323,145.067,41.323z M132.641,143.817
	c3.989,0.991,8.145,1.531,12.426,1.531c4.281,0,8.439-0.54,12.428-1.531c-0.354,9.009,3.606,17.019,10.295,22.502
	c8.927,7.316,21.981,11.045,36.555,11.689c12.823,0.567,21.467,4.7,27.113,10.455c5.026,5.122,7.778,11.701,8.451,18.824
	c-3.783-0.127-7.656-0.249-11.66-0.352c-12.455-0.318-25.593-0.477-37.039-0.236c-11.446,0.24-20.992,0.783-27.289,2.27
	c-10.007,2.362-15.403,4.67-18.852,7.078c-3.448-2.408-8.846-4.716-18.851-7.078c-6.297-1.486-15.843-2.029-27.289-2.27
	c-11.446-0.24-24.584-0.082-37.039,0.236c-4.004,0.102-7.878,0.224-11.66,0.352c0.674-7.123,3.424-13.702,8.449-18.824
	c5.646-5.755,14.29-9.888,27.113-10.455c14.574-0.644,27.628-4.373,36.555-11.689c6.689-5.482,10.651-13.493,10.297-22.502H132.641z
	 M90.02,216.59c2.988,0.013,5.899,0.047,8.697,0.106c11.191,0.235,20.763,0.958,25.201,2.006
	c10.357,2.445,14.785,4.898,16.062,5.928c0.17,0.137,0.17,0.15,0.24,0.221c0.021,0.1,0.057,0.414,0.057,0.414
	c1.422,4.758,8.16,4.758,9.582,0c0,0,0.034-0.314,0.055-0.414c0.07-0.07,0.07-0.084,0.24-0.221
	c1.277-1.029,5.705-3.483,16.062-5.928c4.438-1.048,14.01-1.771,25.201-2.006s24.213-0.077,36.574,0.238
	c18.011,0.46,34.388,1.247,42.074,1.644v7.836c-9.065-1.28-21.213-2.773-34.611-3.783c-27.79-2.095-60.518-2.438-82.303,6.586
	c-3.712,1.537-6.031,4.19-8.086,6.58c-2.055-2.39-4.374-5.043-8.086-6.58c-16.339-6.768-38.834-8.266-60.783-7.709
	c-7.316,0.186-14.572,0.599-21.52,1.123c-13.399,1.01-25.546,2.503-34.611,3.783v-7.836c7.685-0.398,24.063-1.185,42.076-1.644
	C71.414,216.697,81.057,216.55,90.02,216.59L90.02,216.59z M81.834,231.53c19.598-0.057,38.772,1.729,51.318,6.926
	c0.41,0.17,2.993,2.266,4.756,4.316c1.763,2.051,3.041,3.9,3.041,3.9c1.988,2.883,6.247,2.883,8.234,0c0,0,1.278-1.85,3.041-3.9
	c1.763-2.05,4.346-4.147,4.756-4.316c18.25-7.559,50.521-7.902,77.723-5.852c20.258,1.527,37.742,4.186,45.363,5.445v0.787h-105
	c-3.105-0.039-5.495,2.731-5,5.797v4.203h-50v-4.18c0.511-3.074-1.884-5.862-5-5.82h-105v-0.734
	c5.093-0.888,21.995-3.736,45.363-5.498C63.93,231.963,72.926,231.556,81.834,231.53L81.834,231.53z"/>
<g>
</g>
<g>
</g>
<g>
</g>
<g>
</g>
<g>
</g>
<g>
</g>
<g>
</g>
<g>
</g>
<g>
</g>
<g>
</g>
<g>
</g>
<g>
</g>
<g>
</g>
<g>
</g>
<g>
</g>
</svg>
